# xmcd
#
# Track frame offsets:
#	150
#	26100
#	41267
#	82928
#	134412
#	159498
#	195014
#	215924
#
# Disc length: 4127 seconds
#
# Revision: 0
# Processed by: cddbd v1.5.2PL0 Copyright (c) Steve Scherf et al.
# Submitted via: EasyCDDAExtractor 10.0.2.1
#
DISCID=61101d08
DTITLE=Alice Cooper - Chicago Underground Warren Michigan 23-07-70
DYEAR=1970
DGENRE=Hard Rock
TTITLE0=Sun Arise
TTITLE1=Mr And Misdemeanor
TTITLE2=Fields Of Regret
TTITLE3=Eighteen
TTITLE4=Levity Ball
TTITLE5=Is It My Body
TTITLE6=Nobody Likes Me
TTITLE7=Black Juju
EXTD=
EXTT0=
EXTT1=
EXTT2=
EXTT3=
EXTT4=
EXTT5=
EXTT6=
EXTT7=
PLAYORDER=
